<?xml version="1.0" standalone="no"?>
<!DOCTYPE svg PUBLIC "-//W3C//DTD SVG 20010904//EN"
 "http://www.w3.org/TR/2001/REC-SVG-20010904/DTD/svg10.dtd">
<svg version="1.0" xmlns="http://www.w3.org/2000/svg"
 width="500.000000pt" height="500.000000pt" viewBox="0 0 500.000000 500.000000"
 preserveAspectRatio="xMidYMid meet">

<g transform="translate(0.000000,500.000000) scale(0.100000,-0.100000)"
fill="#000000" stroke="none">
<path d="M1165 4859 c-254 -25 -503 -145 -691 -333 -199 -199 -310 -438 -334
-723 -8 -88 -10 -527 -7 -1403 3 -1159 5 -1281 20 -1345 60 -244 166 -437 330
-597 125 -123 270 -213 435 -268 185 -62 136 -60 1588 -60 1261 0 1328 1 1421
19 125 24 206 52 318 109 214 110 387 284 497 499 57 110 85 191 109 316 18
93 19 160 19 1415 0 1108 -2 1331 -15 1407 -69 425 -365 774 -771 911 -181 60
-100 57 -1524 60 -718 1 -1345 -2 -1395 -7z m3005 -1762 l0 -163 -470 -429
c-258 -236 -470 -433 -470 -437 0 -5 216 -8 480 -8 l480 0 0 -175 0 -175 -870
0 -871 0 3 157 3 157 472 431 c259 236 472 433 472 438 1 4 -333 6 -741 5
l-743 -3 -3 -592 -2 -593 -260 0 -260 0 -2 593 -3 592 -292 3 -293 2 0 180 0
180 1685 0 1685 0 0 -163z"/>
</g>
</svg>
