<?xml version="1.0" encoding="utf-8"?>
<!-- Generator: Adobe Illustrator 26.3.1, SVG Export Plug-In . SVG Version: 6.00 Build 0)  -->
<svg version="1.1" id="Layer_1" xmlns="http://www.w3.org/2000/svg" xmlns:xlink="http://www.w3.org/1999/xlink" x="0px" y="0px"
	 viewBox="0 0 101 101" style="enable-background:new 0 0 101 101;" xml:space="preserve">
<style type="text/css">
	.st0{enable-background:new    ;}
	.st1{display:none;fill:#1A1851;}
	.st2{display:none;fill:#231F20;}
	.st3{display:none;}
	.st4{display:inline;}
	.st5{fill:url(#SVGID_00000109002795559307801830000013453101855236331928_);}
	.st6{display:none;opacity:0.115;enable-background:new    ;}
	.st7{fill:#010101;}
	.st8{display:none;fill:url(#SVGID_00000024690883877660425930000011873428330222206906_);}
	.st9{fill:#1B1B1B;}
	.st10{fill:#FFFFFF;}
</style>
<g class="st0">
	<rect x="-337" y="-153" class="st1" width="775" height="458"/>
	<path class="st2" d="M-32.7,95.7c-2.3,0-4.1,2-4.1,4.3c0.4,2.1-1.2,25.6,1.2,26.6l0,0l0,0c1.5,1.6,4.4,1.6,5.9,0l0,0l0,0
		c2.3-0.9,0.7-24.6,1.2-26.6C-28.6,97.7-30.4,95.7-32.7,95.7L-32.7,95.7z M-32.7,84.3c-2.6,0-4.4,0.9-4.3,3.6
		c-0.3,3.2,1,5.1,4.4,4.8c2.6,0,4.2-1,4.1-3.6C-28.1,85.9-29.4,84.1-32.7,84.3L-32.7,84.3z M-66,83.7c-1.2,0-2.2,0.4-2.9,1.3l0,0
		c-0.8,0.8-1.2,1.8-1.2,3c0.5,1.8-1.2,38.3,1.2,38.7l0,0l0,0c1.5,1.6,4.4,1.6,5.9,0l0,0l0,0c3-3.9-0.4-17.1,1.9-21.2
		c1.7-4.1,9.6-5,10.8-0.1l0,0c1.6,4.3-1.2,17.5,1.6,21.3l0,0l0,0c1.5,1.6,4.4,1.6,5.9,0l0,0l0,0c0.8-0.8,1.2-1.9,1.2-3.1
		c-0.2-4.9,0.6-17.4-0.9-22l0,0C-44.4,92.7-57,92-62,98.7c-0.3-2.4,1-12.1-1.2-13.8l0,0C-63.9,84.1-64.9,83.7-66,83.7L-66,83.7z"/>
	<g class="st3">
		<g class="st4">
			
				<linearGradient id="SVGID_00000154401311333984921170000013478221137568473986_" gradientUnits="userSpaceOnUse" x1="-24.1385" y1="380.981" x2="-14.9992" y2="380.981" gradientTransform="matrix(1 0 0 -1 0 504)">
				<stop  offset="0" style="stop-color:#D94498"/>
				<stop  offset="1" style="stop-color:#D94498"/>
			</linearGradient>
			<path id="SVGID_1_" style="fill:url(#SVGID_00000154401311333984921170000013478221137568473986_);" d="M-20,118.3
				c-4.4-0.3-5.2,5.7-3.1,8.4l0,0c1.5,1.5,5.3,1.5,6.8,0C-13.7,123.7-15.2,117.4-20,118.3L-20,118.3z"/>
		</g>
	</g>
	<path class="st2" d="M69.2,100.9c2.2,0,4.5,1.1,5.9,2.9l0,0c0.7,0.8,1,1.8,1.1,2.8H61.7C62.2,102.8,65.6,100.8,69.2,100.9
		L69.2,100.9z M3.6,100.9c2.2,0,4.5,1.1,5.9,2.9l0,0l0,0c0.7,0.8,1,1.8,1.1,2.8H-3.9C-3.4,102.8,0,100.8,3.6,100.9L3.6,100.9z
		 M24.7,93.7c-3.1-0.1-4.9,3.4-3.6,6l0,0l11.2,25.5l0,0l0,0c0.4,0.9,1,1.7,1.7,2.2l0,0l0,0c2.2,1.2,5,0.3,6-2.2l0,0l11.2-25.5l0,0
		c0.1-0.3,0.2-0.6,0.3-1l0,0c1.3-3.3-3-6.4-5.8-4.4c-1.3,0.2-8.5,19.2-9.2,20.5l-7.8-18.4C28.1,94.7,26.4,93.7,24.7,93.7L24.7,93.7
		L24.7,93.7z M158.3,93.1c-2,0-4,0.4-5.8,1.2c-7,2.5-8.7,12.8-2.4,16.9l0,0l0,0c2.2,1.5,5,2.2,7.5,3l0,0c1.2,0.3,2.2,0.7,3.2,1l0,0
		c4.8,1.3,3.3,6.6-1.2,6.2c-5.6,1.2-7.8-6.7-12.8-4.4l0,0c-2,1.1-2.3,3.7-1.2,5.3l0,0c1.6,2.2,3.7,3.8,6.1,4.7
		c4.3,1.5,8.7,1.9,12.9,0.1c13.5-7.5,4.8-19.6-7.6-21.1c-2.3-0.5-4-3.2-2.4-5l0,0l0,0c0.4-0.4,1-0.7,1.5-0.8l0,0
		c1.9-0.4,4-0.2,5.6,0.5c2.1,0.8,2.6,3,4.9,3.1l0,0c3.3,0.2,4.8-3.7,2.9-6.1l0,0C166.9,94.5,162.4,93.1,158.3,93.1L158.3,93.1z
		 M106.4,93.1c-3.7,0-7.2,1.9-9.5,4.7c0-5.4-8.3-5.2-8.1,0.3c0.4,2-1.2,27.8,1.2,28.7l0,0l0,0c1.5,1.6,4.4,1.6,5.9,0l0,0l0,0
		c3-3.9-0.4-18.2,1.9-22.4l0,0l0,0c1.8-4.1,10-5,11.3-0.1l0,0l0,0c1.8,4.4-1.2,18.5,1.7,22.4l0,0l0,0c1.5,1.6,4.4,1.6,5.9,0l0,0l0,0
		c0.8-0.8,1.2-1.9,1.2-3.1c-0.2-5,0.6-18.5-0.9-23.1l0,0C115.4,95.5,111.9,93,106.4,93.1L106.4,93.1z M69.2,93.1
		c-5.7,0-10.9,3.3-13.7,8.4l0,0c-2.8,5-3,13.3-0.2,18.5l0,0c1.4,2.6,3.4,4.7,5.9,6.2l0,0c4.2,2.4,10.3,3,15.1,1.2
		c7.6-1.6,9-11.5,0.6-8.9l0,0c-4.2,3.3-11.7,2.9-14.5-2.4l0,0c-0.4-0.7-0.7-1.5-0.9-2.3c2.1-0.4,20.7,1,22-1
		c3.4-4.3-0.3-11.1-3.4-14.7l0,0c-1.4-1.6-3.1-2.8-5-3.7C73.3,93.5,71.3,93.1,69.2,93.1L69.2,93.1L69.2,93.1z M3.6,93.1
		c-5.7,0-10.9,3.3-13.7,8.4l0,0c-2.8,5-3,13.3-0.2,18.5l0,0c1.4,2.6,3.4,4.7,5.9,6.2l0,0c4.2,2.4,10.3,3,15.1,1.2l0,0
		c7.5-1.5,9-11.5,0.6-8.9l0,0c-4.2,3.3-11.7,2.9-14.5-2.4l0,0c-0.4-0.7-0.7-1.5-0.9-2.3c2.1-0.4,20.7,1,22-1
		c3.4-4.3-0.3-11.1-3.4-14.7l0,0C11.7,95.1,7.8,93,3.6,93.1L3.6,93.1L3.6,93.1z M130.3,86.6c-4.2-0.1-4.4,4.7-4.1,7.8
		c-8.1-1.4-8.1,9.3,0,7.9c0.8,5.5-2.4,20.9,3.3,24.4l0,0l0,0c11.7,5.9,16.4-8,7.9-6.4l0,0c-1.3,0.5-3.3,0.1-3.1-1.8v-16.3
		c1.8-0.1,5.1,0.5,6.4-1.1l0,0l0,0c3.6-5.4-1.8-7.5-6.5-6.8C134.5,91.3,134.5,86.5,130.3,86.6L130.3,86.6z"/>
	<g id="rainbow_00000015343790141144027740000006422373996955350163_" class="st6">
		<g class="st4">
			<path class="st7" d="M68.1,68.1c0-8.4-4.6-15.3-11.3-18.7c-0.7-0.9-1.4-1.8-2.2-2.6c-5.4-5.7-13.2-9-21.1-9.1
				C17.1,37.8,3.7,52,4,68.3l0,0v-0.2l0,0C3.7,49.7,19.3,33.8,37.9,35C54.7,35.8,68.3,51.2,68,67.8C68.1,67.9,68.1,68,68.1,68.1
				L68.1,68.1z"/>
		</g>
	</g>
</g>
<path class="st2" d="M79,95"/>
<linearGradient id="SVGID_00000156571622025632141150000005265927567011867279_" gradientUnits="userSpaceOnUse" x1="67" y1="39" x2="67" y2="39" gradientTransform="matrix(1 0 0 -1 0 102)">
	<stop  offset="0" style="stop-color:#DA4398"/>
	<stop  offset="0.9994" style="stop-color:#B46AAB"/>
</linearGradient>
<path style="display:none;fill:url(#SVGID_00000156571622025632141150000005265927567011867279_);" d="M67,63"/>
<path class="st9" d="M70.8,93.1H30.2c-12.6,0-22.8-10.2-22.8-22.8V29.7c0-12.6,10.2-22.8,22.8-22.8h40.6c12.6,0,22.8,10.2,22.8,22.8
	v40.6C93.6,82.9,83.4,93.1,70.8,93.1z"/>
<g>
	<path class="st10" d="M50.5,42.8H40.3v20.7h-9.1V42.8H21v-6.2h29.5V42.8z"/>
	<path class="st10" d="M80,57.3v6.2H49.7V58l16.7-15.2H50.5v-6.2h29.2V42L63,57.3H80z"/>
</g>
</svg>
