<?xml version="1.0" standalone="no"?>
<!DOCTYPE svg PUBLIC "-//W3C//DTD SVG 20010904//EN"
 "http://www.w3.org/TR/2001/REC-SVG-20010904/DTD/svg10.dtd">
<svg version="1.0" xmlns="http://www.w3.org/2000/svg"
 width="740.000000pt" height="123.000000pt" viewBox="0 0 740.000000 123.000000"
 preserveAspectRatio="xMidYMid meet">

<g transform="translate(0.000000,123.000000) scale(0.100000,-0.100000)"
fill="#000000" stroke="none">
<path d="M2075 1055 c-276 -51 -425 -220 -425 -480 0 -325 242 -511 640 -492
255 13 417 101 494 269 19 40 37 88 40 106 l6 32 -165 0 -164 0 -21 -47 c-47
-106 -125 -149 -259 -141 -159 10 -231 84 -239 249 -10 191 83 299 258 299
122 0 197 -45 240 -142 l21 -48 164 0 165 0 -6 33 c-11 62 -70 171 -118 219
-127 128 -392 187 -631 143z"/>
<path d="M70 940 l0 -110 180 0 180 0 0 -365 0 -365 160 0 160 0 0 365 0 365
180 0 180 0 0 110 0 110 -520 0 -520 0 0 -110z"/>
<path d="M1220 575 l0 -475 160 0 160 0 0 475 0 475 -160 0 -160 0 0 -475z"/>
<path d="M2930 575 l0 -475 165 0 165 0 0 133 0 132 72 62 71 63 79 -113 c43
-61 104 -149 136 -194 l57 -82 188 -1 c103 0 187 2 187 5 0 2 -93 129 -206
281 -113 152 -208 282 -210 289 -3 8 78 87 196 191 l202 179 -197 3 -196 2
-38 -32 c-21 -18 -106 -95 -190 -171 l-151 -139 0 171 0 171 -165 0 -165 0 0
-475z"/>
<path d="M4130 575 l0 -475 475 0 475 0 0 110 0 110 -310 0 -310 0 0 80 0 80
285 0 285 0 0 110 0 110 -285 0 -285 0 0 65 0 65 305 0 305 0 0 110 0 110
-470 0 -470 0 0 -475z"/>
<path d="M5180 940 l0 -110 180 0 180 0 0 -365 0 -365 160 0 160 0 0 365 0
365 180 0 180 0 0 110 0 110 -520 0 -520 0 0 -110z"/>
<path d="M6320 940 l0 -110 279 -2 279 -3 -289 -264 -289 -264 0 -98 0 -99
530 0 530 0 0 110 0 110 -295 0 -296 0 291 266 290 266 0 99 0 99 -515 0 -515
0 0 -110z"/>
</g>
</svg>
