<?xml version="1.0" encoding="utf-8"?>
<!-- Generator: Adobe Illustrator 26.3.1, SVG Export Plug-In . SVG Version: 6.00 Build 0)  -->
<svg version="1.1" id="Layer_1" xmlns="http://www.w3.org/2000/svg" xmlns:xlink="http://www.w3.org/1999/xlink" x="0px" y="0px"
	 viewBox="0 0 1000 500" style="enable-background:new 0 0 1000 500;" xml:space="preserve">
<style type="text/css">
	.st0{fill:#FFFFFF;}
</style>
<g>
	<rect x="633.2" y="144.3" class="st0" width="340.8" height="211.5"/>
	<g>
		<path class="st0" d="M170.9,214.6h-49.7v101H76.7v-101H27v-30.4h143.9V214.6z"/>
		<path class="st0" d="M215.6,184.2v131.4H171V184.2H215.6z"/>
		<path class="st0" d="M332.9,261.9h45.6c-6.2,41.1-41.9,56.5-80.9,56.5c-42.8,0-82-18.2-82-68.5c0-50.1,39.2-68.3,82-68.3
			c39,0,74.7,15.4,80.9,56.5h-45.6c-4.1-16.7-14.1-26.5-35.3-26.5c-25.3,0-37,15.2-37,38.3c0,23.3,11.6,38.5,37,38.5
			C318.8,288.4,328.8,278.6,332.9,261.9z"/>
		<path class="st0" d="M443.3,261.4l-20.3,18v36.2h-44.5V184.2H423v48l52.7-48h55l-57.2,50.7l59.9,80.7h-52L443.3,261.4z"/>
		<path class="st0" d="M661,315.6H529.6V184.2h129.5v30.4h-85V233h79.8v30.4h-79.8v22H661V315.6z"/>
		<path class="st0" d="M803.1,214.6h-49.7v101h-44.5v-101h-49.7v-30.4h143.9V214.6z"/>
		<path class="st0" d="M946.8,285.4v30.2H799.3v-26.7l81.3-74.3h-77.7v-30.4h142.3v26.8l-81.3,74.3H946.8z"/>
	</g>
</g>
</svg>
